<svg xmlns="http://www.w3.org/2000/svg" width="100%" height="100%" viewBox="0 0 64 64" version="1.1" xml:space="preserve" style="fill-rule:evenodd;clip-rule:evenodd;stroke-linecap:round;stroke-linejoin:round;stroke-miterlimit:2" id="svg19"><path d="M23.634 36.002a2.284 2.284 0 0 0 2.162-1.554 6.098 6.098 0 0 1 5.813-4.214 6.166 6.166 0 0 1 5.842 4.204 2.25 2.25 0 0 0 2.133 1.532c.964.032 1.949.032 1.949.032a6.498 6.498 0 0 1 6.5 6.5v.003a6.501 6.501 0 0 1-6.5 6.499H21.684a6.5 6.5 0 0 1-6.499-6.499v-.003a6.497 6.497 0 0 1 6.499-6.5h1.95Z" style="fill:none;stroke:#222a33;stroke-width:1.5px" id="path3"/><path d="M11.864 44.68a6.499 6.499 0 0 1-4.5-6.184v-.003a6.499 6.499 0 0 1 6.499-6.5h3.778a6.163 6.163 0 0 1 6.147-5.768c2.76 0 5.099 1.82 5.88 4.324" style="fill:none;stroke:#222a33;stroke-width:1.5px" id="path5"/><path d="M37.232 26.996a6.107 6.107 0 0 1 2.98-.771 6.165 6.165 0 0 1 5.842 4.205 2.251 2.251 0 0 0 2.133 1.531c.964.032 1.95.032 1.95.032a6.501 6.501 0 0 1 6.499 6.5v.003a6.499 6.499 0 0 1-6.499 6.5h-2.6" style="fill:none;stroke:#222a33;stroke-width:1.5px" id="path7"/><path d="M38.864 25.996c0-3.312 2.688-6 6-6a6.003 6.003 0 0 1 5.658 8" style="fill:none;stroke:#222a33;stroke-width:1.5px" id="path9"/><path d="M44.864 14.996v2" style="fill:none;stroke:#222a33;stroke-width:1.5px" id="path11"/><path d="m52.642 18.217-1.414 1.415" style="fill:none;stroke:#222a33;stroke-width:1.5px" id="path13"/><path d="M55.864 25.996h-2" style="fill:none;stroke:#222a33;stroke-width:1.5px" id="path15"/><path d="m37.085 18.217 1.415 1.415" style="fill:none;stroke:#222a33;stroke-width:1.5px" id="path17"/></svg>